Coordinates
version=1
nRows=49
nColumns=12
inDegrees=yes

Units are S.I. units (second, meters, Newtons, ...)
Angles are in degrees

endheader
time	SC_y	SC_z	SC_x	AC_y	AC_z	AC_x	GH_y	GH_z	GH_yy	EL_x	PS_y
       0.0               -53.9          32.84          63.25          63.13         -19.62         -3.659          105.1          72.89         -137.7          56.83          149.1
   0.01844               -53.9          32.84          63.25          63.13         -19.61         -3.656          105.0          72.88         -137.6          56.82          149.1
   0.03687               -53.9          32.84          63.25          63.13         -19.61         -3.653          105.0          72.88         -137.6          56.81          149.1
   0.05531              -53.89          32.83          63.25          63.13         -19.61          -3.65          105.0          72.87         -137.6           56.8          149.1
   0.07375              -53.89          32.83          63.25          63.12          -19.6         -3.646          105.0          72.86         -137.6           56.8          149.1
   0.09218              -53.89          32.83          63.25          63.12          -19.6         -3.643          105.0          72.85         -137.5          56.79          149.1
    0.1106              -53.88          32.83          63.26          63.12          -19.6         -3.639          104.9          72.84         -137.5          56.78          149.1
    0.1291              -53.88          32.82          63.26          63.12         -19.59         -3.634          104.9          72.83         -137.5          56.77          149.1
    0.1475              -53.88          32.82          63.26          63.12         -19.59          -3.63          104.9          72.82         -137.5          56.76          149.1
    0.1659              -53.88          32.82          63.26          63.11         -19.58         -3.625          104.9          72.81         -137.4          56.74          149.1
    0.1844              -53.87          32.81          63.26          63.11         -19.58          -3.62          104.8           72.8         -137.4          56.73          149.0
    0.2028              -53.87          32.81          63.27          63.11         -19.57         -3.615          104.8          72.78         -137.4          56.72          149.0
    0.2212              -53.86          32.81          63.27           63.1         -19.56         -3.609          104.8          72.77         -137.3           56.7          149.0
    0.2397              -53.86           32.8          63.27           63.1         -19.56         -3.602          104.7          72.75         -137.3          56.69          149.0
    0.2581              -53.85           32.8          63.27           63.1         -19.55         -3.595          104.7          72.74         -137.2          56.67          149.0
    0.2765              -53.85          32.79          63.28          63.09         -19.54         -3.587          104.6          72.72         -137.2          56.65          149.0
     0.295              -53.84          32.79          63.28          63.09         -19.53         -3.579          104.6           72.7         -137.1          56.63          149.0
    0.3134              -53.84          32.78          63.28          63.08         -19.52          -3.57          104.5          72.68         -137.1          56.61          149.0
    0.3319              -53.83          32.77          63.29          63.08         -19.51          -3.56          104.5          72.65         -137.0          56.58          149.0
    0.3503              -53.82          32.77          63.29          63.07          -19.5          -3.55          104.4          72.63         -136.9          56.56          149.0
    0.3687              -53.81          32.76           63.3          63.07         -19.49         -3.538          104.4           72.6         -136.9          56.53          149.0
    0.3872               -53.8          32.75           63.3          63.06         -19.47         -3.525          104.3          72.57         -136.8          56.49          149.0
    0.4056              -53.79          32.74          63.31          63.05         -19.46         -3.511          104.2          72.53         -136.7          56.46          149.0
     0.424              -53.78          32.73          63.32          63.05         -19.44         -3.495          104.1          72.49         -136.6          56.42          149.0
    0.4425              -53.77          32.72          63.32          63.04         -19.42         -3.477          104.0          72.45         -136.5          56.38          149.0
    0.4609              -53.76           32.7          63.33          63.03          -19.4         -3.457          103.9          72.41         -136.3          56.33          149.0
    0.4793              -53.74          32.69          63.34          63.01         -19.38         -3.435          103.8          72.35         -136.2          56.27          149.0
    0.4978              -53.72          32.67          63.35           63.0         -19.35          -3.41          103.6          72.29         -136.0          56.21          149.0
    0.5162               -53.7          32.65          63.36          62.99         -19.32         -3.382          103.5          72.22         -135.8          56.14          149.0
    0.5347              -53.68          32.63          63.38          62.97         -19.29          -3.35          103.3          72.15         -135.6          56.06          149.0
    0.5531              -53.66           32.6          63.39          62.95         -19.25         -3.314          103.1          72.06         -135.4          55.97          149.0
    0.5715              -53.63          32.57          63.41          62.93          -19.2         -3.272          102.8          71.96         -135.1          55.87          149.0
      0.59              -53.59          32.54          63.43           62.9         -19.15         -3.224          102.5          71.84         -134.8          55.75          149.0
    0.6084              -53.55           32.5          63.45          62.88         -19.09         -3.168          102.2          71.71         -134.4          55.61          149.0
    0.6268              -53.51          32.46          63.48          62.84         -19.02         -3.103          101.8          71.55         -134.0          55.45          149.0
    0.6453              -53.45           32.4          63.51           62.8         -18.94         -3.026          101.4          71.37         -133.5          55.25          149.0
    0.6637              -53.39          32.34          63.55          62.75         -18.84         -2.934          100.8          71.15         -132.9          55.03          149.0
    0.6821              -53.31          32.26           63.6           62.7         -18.73         -2.824          100.2          70.88         -132.2          54.75          149.0
    0.7006              -53.22          32.17          63.65          62.63         -18.58         -2.691          99.43          70.56         -131.3          54.42          149.0
     0.719               -53.1          32.06          63.72          62.54         -18.41         -2.528          98.48          70.17         -130.2          54.02          148.9
    0.7375              -52.96          31.92           63.8          62.44          -18.2         -2.328          97.32          69.69         -128.9          53.52          148.9
    0.7559              -52.78          31.74          63.91          62.31         -17.93         -2.077          95.86          69.09         -127.3           52.9          148.9
    0.7743              -52.56          31.52          64.04          62.14         -17.59         -1.762          94.03          68.33         -125.2          52.12          148.9
    0.7928              -52.28          31.25          64.21          61.94         -17.16         -1.361           91.7          67.36         -122.6          51.13          148.8
    0.8112              -51.91          30.89          64.42          61.67         -16.62        -0.8487          88.72          66.13         -119.2          49.85          148.8
    0.8296              -51.45          30.43          64.69          61.33         -15.91        -0.1906           84.9          64.55         -114.9          48.22          148.7
    0.8481              -50.85          29.85          65.04          60.89         -15.01           0.65          80.01          62.53         -109.3          46.13          148.6
    0.8665              -50.11          29.12          65.48          60.34         -13.88          1.707          73.87          59.98         -102.4          43.51          148.5
    0.8849               -49.2          28.22          66.02          59.67         -12.51          2.995          66.38          56.89         -93.93          40.31          148.4
